<?xml version="1.0" encoding="UTF-8" standalone="no"?>
<!-- Created with Inkscape (http://www.inkscape.org/) -->

<svg
   xmlns:dc="http://purl.org/dc/elements/1.1/"
   xmlns:cc="http://creativecommons.org/ns#"
   xmlns:rdf="http://www.w3.org/1999/02/22-rdf-syntax-ns#"
   xmlns:svg="http://www.w3.org/2000/svg"
   xmlns="http://www.w3.org/2000/svg"
   xmlns:sodipodi="http://sodipodi.sourceforge.net/DTD/sodipodi-0.dtd"
   xmlns:inkscape="http://www.inkscape.org/namespaces/inkscape"
   id="svg3461"
   version="1.1"
   inkscape:version="0.91 r13725"
   xml:space="preserve"
   width="1783.6506"
   height="311.12552"
   viewBox="0 0 1783.6507 311.12552"
   sodipodi:docname="nsg_title.svg"><metadata
     id="metadata3467"><rdf:RDF><cc:Work
         rdf:about=""><dc:format>image/svg+xml</dc:format><dc:type
           rdf:resource="http://purl.org/dc/dcmitype/StillImage" /><dc:title></dc:title></cc:Work></rdf:RDF></metadata><defs
     id="defs3465"><filter
       style="color-interpolation-filters:sRGB"
       inkscape:label="Drop Shadow"
       id="filter5442"><feFlood
         flood-opacity="0.498039"
         flood-color="rgb(0,0,0)"
         result="flood"
         id="feFlood5444" /><feComposite
         in="flood"
         in2="SourceGraphic"
         operator="in"
         result="composite1"
         id="feComposite5446" /><feGaussianBlur
         in="composite1"
         stdDeviation="3"
         result="blur"
         id="feGaussianBlur5448" /><feOffset
         dx="12"
         dy="-12"
         result="offset"
         id="feOffset5450" /><feComposite
         in="SourceGraphic"
         in2="offset"
         operator="over"
         result="composite2"
         id="feComposite5452" /></filter></defs><sodipodi:namedview
     pagecolor="#ffffff"
     bordercolor="#666666"
     borderopacity="1"
     objecttolerance="10"
     gridtolerance="10"
     guidetolerance="10"
     inkscape:pageopacity="0"
     inkscape:pageshadow="2"
     inkscape:window-width="1920"
     inkscape:window-height="1145"
     id="namedview3463"
     showgrid="false"
     inkscape:zoom="0.98309497"
     inkscape:cx="830.15826"
     inkscape:cy="177.13757"
     inkscape:window-x="-5"
     inkscape:window-y="-5"
     inkscape:window-maximized="1"
     inkscape:current-layer="g3469"
     fit-margin-top="0"
     fit-margin-left="0"
     fit-margin-right="0"
     fit-margin-bottom="0" /><g
     id="g3469"
     inkscape:groupmode="layer"
     inkscape:label="Logo_11"
     transform="matrix(1.25,0,0,-1.25,-180.21532,285.19838)"><g
       id="g5421"
       style="fill:#e0e0e0;fill-opacity:1;filter:url(#filter5442)"><path
         inkscape:connector-curvature="0"
         id="path3491"
         style="fill:#e0e0e0;fill-opacity:1;fill-rule:evenodd;stroke:none"
         d="m 263.0823,52.0668 0,75.3585 c 0,0 -0.0173,6.2418 6.0035,6.2418 13.1366,9e-4 16.6862,-10.396 16.6862,-10.396 l 12.8633,-23.4598 c 4.4685,-7.9373 8.8313,-17.3302 12.2961,-25.8296 l 0.2234,0 c -1.0066,9.9493 -1.3428,20.122 -1.3428,31.5264 l -1.7192,94.9249 c 0,0 0.6571,6.984 8.7449,6.984 8.0878,0 8.6769,-6.984 8.6769,-6.984 0,0 -0.9672,-24.9401 -0.9672,-35.3673 0,-10.4247 0,-112.9989 0,-112.9989 l -16.9677,0 -16.1019,29.0724 c -4.4767,8.1589 -9.5,17.7726 -13.0776,26.6043 l -0.4533,0 c 0.5661,-10.0608 0.7889,-20.6793 0.7889,-32.9811 l 0,-22.6956 -15.6535,0 z" /><path
         inkscape:connector-curvature="0"
         id="path3493"
         style="fill:#e0e0e0;fill-opacity:1;fill-rule:evenodd;stroke:none"
         d="m 348.1339,74.0923 c 0.5615,-7.1553 7.4962,-10.5044 15.4375,-10.5044 5.8099,0 10.5057,0.7784 15.093,2.3428 l 2.2323,-11.5123 c -5.5896,-2.3516 -12.4123,-3.4676 -19.7841,-3.4676 -18.5624,0 -29.1878,10.7314 -29.1878,27.9504 0,13.8637 8.7219,29.181 27.6126,29.181 17.6641,0 24.3762,-13.7526 24.3762,-27.2812 0,-2.9032 -0.333,-5.4808 -0.559,-6.8193 l -35.2207,0.1106 z m 20.0157,11.6251 c 0,4.0258 -1.7904,11.0719 -9.5034,11.0719 -7.2621,0 -10.1767,-6.5951 -10.622,-11.0719 l 20.1254,0 z" /><path
         inkscape:connector-curvature="0"
         id="path3495"
         style="fill:#e0e0e0;fill-opacity:1;fill-rule:evenodd;stroke:none"
         d="m 402.3017,124.094 c 8.2964,0 8.2964,-6.8063 8.2964,-6.8063 l 0,-10.5474 12.1865,0 0,-12.5243 -12.1865,0 0,-19.899 c 0,-6.5967 1.6742,-9.6154 6.7091,-9.6154 2.3485,9e-4 3.4622,0.1154 5.0267,0.4476 l 0.1097,-12.8591 c -2.1195,-0.7789 -6.2606,-1.4499 -10.952,-1.4499 -5.4799,9e-4 -10.0638,1.9001 -12.8574,4.6936 -3.1288,3.2403 -4.6967,8.4994 -4.6967,16.2122 l 0,22.47 -7.2672,0 0,12.5243 7.2672,0 0,10.6823 c 0,0 0.0678,6.6714 8.3642,6.6714" /><path
         inkscape:connector-curvature="0"
         id="path3497"
         style="fill:#e0e0e0;fill-opacity:1;fill-rule:evenodd;stroke:none"
         d="m 444.801,106.7403 4.4767,-22.4745 c 1.0092,-5.5896 2.1226,-11.6238 3.0186,-17.8875 l 0.334,0 c 1.0057,6.1518 2.6798,12.4098 3.9089,17.7769 l 5.8162,22.5851 13.4212,0 5.4703,-21.8035 c 1.5644,-6.2606 3.0186,-12.2948 4.0305,-18.5585 l 0.2229,0 c 0.7846,6.1518 1.9006,12.4098 3.2419,18.6704 l 4.5814,21.6916 16.655,0 -16.7678,-54.6735 -15.8738,0 -5.1468,19.1214 c -1.4482,5.362 -2.4548,10.2863 -3.5708,17.1025 l -0.2203,9e-4 c -1.0088,-6.8171 -2.1308,-11.9648 -3.4736,-16.9963 l -5.4734,-19.2285 -15.9896,0 -15.9866,54.6735 17.3251,0 z" /><path
         inkscape:connector-curvature="0"
         id="path3499"
         style="fill:#e0e0e0;fill-opacity:1;fill-rule:evenodd;stroke:none"
         d="m 537.8777,50.8411 c -15.9866,0 -28.2917,10.5057 -28.2917,28.1729 8e-4,17.6641 11.6342,28.9554 29.2957,28.9554 16.6598,0 27.8374,-11.5155 27.8374,-28.065 8e-4,-19.8964 -14.2019,-29.0642 -28.7311,-29.0642 l -0.1103,9e-4 z m 0.3328,12.1807 c 6.7076,0 10.8448,6.5985 10.8448,16.4373 0,8.0509 -3.1383,16.3244 -10.8448,16.3244 -8.0501,0 -11.1833,-8.2735 -11.1833,-16.4347 9e-4,-9.2826 3.9189,-16.3278 11.073,-16.3278 l 0.1103,8e-4 z" /><path
         inkscape:connector-curvature="0"
         id="path3501"
         style="fill:#e0e0e0;fill-opacity:1;fill-rule:evenodd;stroke:none"
         d="m 572.3464,88.7391 c 0,8.0502 -0.1131,13.3028 -0.4493,18.0012 l 14.5301,0 0.6685,-10.1736 0.4475,0 c 2.7993,8.051 9.3907,11.4027 14.76,11.4027 1.5645,0 2.346,-0.1145 3.5833,-0.3373 l 0,-15.984 c -1.4598,0.2259 -2.7995,0.4459 -4.6993,0.4459 -6.2606,0 -10.5091,-3.2451 -11.6251,-8.6097 -0.2259,-1.1154 -0.3331,-2.3451 -0.3331,-3.8027 l 0,-27.6148 -16.9957,0 0.1131,36.6723 z" /><path
         inkscape:connector-curvature="0"
         id="path3503"
         style="fill:#e0e0e0;fill-opacity:1;fill-rule:evenodd;stroke:none"
         d="m 628.1549,114.8567 c 0,-9.6213 -8e-4,-31.2596 -8e-4,-31.2596 l 0.2225,9e-4 c 1.23,2.3476 2.5685,4.583 3.9104,6.5962 l 11.0673,16.5461 20.463,0 -19.5687,-22.1392 22.3631,-32.5343 -20.9058,0 -13.3058,22.4736 -4.2452,-5.4774 0,-16.9962 -15.2149,0 c 0,54.4779 0,54.0689 0,61.4194 0,6.9888 -1.0656,24.7705 -1.0656,24.7705 0,0 0.4567,7.1107 8.8178,7.1107 7.3834,0 8.1779,-7.1107 8.1779,-7.1107 6e-4,0 -0.716,-13.7781 -0.7152,-23.4" /><path
         inkscape:connector-curvature="0"
         id="path3505"
         style="fill:#e0e0e0;fill-opacity:1;fill-rule:evenodd;stroke:none"
         d="m 716.5278,68.7368 c 4.5462,-2.2437 11.8304,-4.4768 19.2334,-4.4768 7.9642,0 12.1703,3.0946 12.1703,7.8814 0,4.364 -3.6341,7.0249 -12.8552,10.0075 -12.742,4.2599 -21.1677,10.8618 -21.1677,21.4052 0,12.2463 11.0393,21.509 29.0274,21.509 8.7528,0 15.0086,-1.5981 19.5695,-3.6223 l -3.8727,-12.9892 c -2.9574,1.3861 -8.528,3.4095 -15.931,3.4095 -7.5126,8e-4 -11.1489,-3.3032 -11.1489,-6.9234 0,-4.5796 4.2083,-6.6016 14.2166,-10.2208 13.5473,-4.688 19.8028,-11.2882 19.8028,-21.5125 0,-12.0342 -9.7872,-22.2536 -30.8395,-22.2536 -8.7588,0 -17.4104,2.2357 -21.7406,4.4685 l 3.5356,13.3175 z" /><path
         inkscape:connector-curvature="0"
         id="path3507"
         style="fill:#e0e0e0;fill-opacity:1;fill-rule:evenodd;stroke:none"
         d="M 788.9652,106.8097 797.129,85.555 c 0.8912,-2.5659 2.0098,-5.7541 2.6807,-8.0575 l 0.3331,0 c 0.7804,2.3034 1.6824,5.5814 2.4627,8.0566 l 6.7077,21.2556 18.2185,0 -12.7386,-28.5168 C 806.9647,61.1141 801.7155,54.294 795.5612,49.9612 789.749,45.8804 783.4901,44.3741 779.1296,44.0246 l -3.5776,11.3323 c 2.1226,0.3501 4.8067,1.156 7.38,2.3009 2.571,1.0687 5.4751,3.2811 7.0364,5.4097 0.5613,0.6987 0.8935,1.3271 0.8935,1.9417 0,0.4402 -0.1097,1.1562 -0.6679,2.2133 l -20.122,39.5872 18.8932,0 z" /><path
         inkscape:connector-curvature="0"
         id="path3509"
         style="fill:#e0e0e0;fill-opacity:1;fill-rule:evenodd;stroke:none"
         d="m 833.9766,66.9351 c 3.1257,-1.8993 9.6097,-4.0227 14.6412,-4.0227 5.1452,0 7.2677,1.6742 7.2677,4.4685 0,2.9033 -1.6772,4.2475 -7.9387,6.376 -11.4026,3.6904 -15.7583,9.9485 -15.6478,16.3196 0,10.2895 8.7245,17.9995 22.2446,17.9995 6.3737,0 11.9617,-1.5648 15.3213,-3.2397 L 866.9503,93.208 c -2.4557,1.2296 -7.2621,3.0194 -11.846,3.0194 -4.1323,0 -6.4865,-1.6801 -6.4865,-4.3582 8e-4,-2.6864 2.1316,-4.0258 8.8291,-6.3769 10.4085,-3.4636 14.6511,-8.8316 14.7634,-16.7728 5e-4,-10.2838 -7.9382,-17.7687 -23.5925,-17.7687 -7.1484,0 -13.5252,1.6718 -17.6641,3.9106 l 3.0229,12.0737 z" /><path
         inkscape:connector-curvature="0"
         id="path3511"
         style="fill:#e0e0e0;fill-opacity:1;fill-rule:evenodd;stroke:none"
         d="m 904.1136,118.4474 0,-10.4811 12.1833,0 0,-12.5246 -12.1833,0 0,-19.8995 c 0,-6.596 1.6767,-9.6132 6.7116,-9.6132 2.346,9e-4 3.4589,0.1131 5.0264,0.4454 l 0.1106,-12.86 c -2.1235,-0.7724 -6.2615,-1.4468 -10.9551,-1.4468 -5.4808,0 -10.0613,1.8919 -12.8548,4.6936 -3.1317,3.2485 -4.697,8.4969 -4.697,16.2043 l 8e-4,22.4762 -7.2711,0 0,12.5246 7.2711,0 0,10.2838 16.6575,0.1973 z" /><path
         inkscape:connector-curvature="0"
         id="path3513"
         style="fill:#e0e0e0;fill-opacity:1;fill-rule:evenodd;stroke:none"
         d="m 938.6617,74.0971 c 0.5582,-7.1575 7.4931,-10.5058 15.431,-10.5058 5.8156,0 10.5035,0.7807 15.0931,2.3451 l 2.2354,-11.5121 c -5.5953,-2.3519 -12.4124,-3.4735 -19.7864,-3.4735 -18.561,0 -29.187,10.7404 -29.187,27.9561 9e-4,13.8614 8.7203,29.177 27.6166,29.177 17.6615,0 24.3706,-13.7517 24.3706,-27.2803 0,-2.9033 -0.3331,-5.4774 -0.5556,-6.8162 l -35.2177,0.1097 z m 20.0126,11.6291 c 0,4.0261 -1.7903,11.0673 -9.506,11.0673 -7.2595,0 -10.1743,-6.5993 -10.6194,-11.0673 l 20.1254,0 z" /><path
         inkscape:connector-curvature="0"
         id="path3515"
         style="fill:#e0e0e0;fill-opacity:1;fill-rule:evenodd;stroke:none"
         d="m 984.6094,89.2947 c 0,6.8222 -0.2203,12.5246 -0.4459,17.4442 l 14.4195,0 0.671,-7.4931 0.3322,0 c 2.3542,3.5807 7.2703,8.7196 16.5478,8.7196 7.1598,0 12.6397,-3.6847 14.9857,-9.3906 l 0.2233,9e-4 c 2.122,2.9089 4.4671,5.1468 7.1567,6.7081 3.0137,1.6807 6.3677,2.6816 10.3969,2.6816 10.5066,0 18.4447,-7.3752 18.4447,-23.6996 l 0,-32.199 -16.5447,0 0,29.628 c 0,7.9356 -2.5741,12.5195 -8.054,12.5195 -4.0227,0 -6.7091,-2.6816 -7.9382,-5.9236 -0.3322,-1.228 -0.559,-2.9089 -0.559,-4.2474 l 9e-4,-31.9765 -16.5478,0 0,30.6354 c 0,6.8185 -2.458,11.5121 -7.9308,11.5121 -4.3628,0 -6.9316,-3.3526 -7.9404,-6.0364 -0.5556,-1.3402 -0.6684,-2.9055 -0.6684,-4.3605 l 0,-31.7506 -16.5495,0 0,37.2279 z" /><path
         inkscape:connector-curvature="0"
         id="path3517"
         style="fill:#e0e0e0;fill-opacity:1;fill-rule:evenodd;stroke:none"
         d="m 1080.6497,66.9351 c 3.1289,-1.8993 9.6154,-4.0227 14.6421,-4.0227 5.1451,0 7.2677,1.6742 7.2677,4.4685 0,2.9033 -1.675,4.2475 -7.9356,6.376 -11.4026,3.6904 -15.758,9.9485 -15.6486,16.3196 0,10.2895 8.7196,17.9995 22.2449,17.9995 6.3768,0 11.9613,-1.5648 15.3155,-3.2397 l -2.9091,-11.6283 c -2.4571,1.2296 -7.2587,3.0194 -11.8486,3.0194 -4.132,0 -6.4862,-1.6801 -6.4862,-4.3582 0,-2.6864 2.1316,-4.0258 8.8325,-6.3769 10.4048,-3.4636 14.6503,-8.8316 14.7597,-16.7728 0,-10.2838 -7.9379,-17.7687 -23.5922,-17.7687 -7.1493,0 -13.5227,1.6718 -17.6641,3.9106 l 3.022,12.0737 z" /><path
         inkscape:connector-curvature="0"
         id="path3519"
         style="fill:#e0e0e0;fill-opacity:1;fill-rule:evenodd;stroke:none"
         d="m 1227.7256,54.8099 c -4.7804,-1.6243 -13.8305,-3.8591 -22.8626,-3.8591 -12.5022,0 -21.5424,3.1456 -27.8456,9.1499 -6.1968,5.9908 -9.6499,14.927 -9.6499,24.9883 0.1048,22.7602 16.6665,35.7619 39.1198,35.7619 8.8463,0 15.6535,-1.7249 19.006,-3.248 l -3.265,-12.4931 c -3.7516,1.7249 -8.3332,2.948 -15.8456,2.948 -12.8994,0 -22.752,-7.3119 -22.752,-22.157 0,-14.2132 8.9362,-22.4532 21.6416,-22.4532 3.4507,0 6.3032,0.4025 7.515,0.9099 l 8e-4,14.4309 -10.5607,0 0,12.0974 25.4982,0 0,-36.0759 z" /><path
         inkscape:connector-curvature="0"
         id="path3521"
         style="fill:#e0e0e0;fill-opacity:1;fill-rule:evenodd;stroke:none"
         d="m 1238.8524,67.7299 c 0,9.2971 0.067,21.562 0.067,21.562 0,7.8063 -0.1123,12.9002 -0.4314,17.4447 l 14.0734,0 0.6506,-9.8634 0.4314,0 c 2.7181,7.8054 9.0967,11.0525 14.3064,11.0525 1.5106,9e-4 2.2723,-0.104 3.4705,-0.3265 l 0,-15.4843 c -1.4151,0.2169 -2.7201,0.4332 -4.5587,0.4332 -6.0692,0 -10.1792,-3.14 -11.2617,-8.3441 -0.2146,-1.0769 -0.3243,-2.2691 -0.3243,-3.6848 l 0.1604,-36.3563 c 0,0 -0.028,-7.1215 -8.3693,-7.1215 -8.3412,9e-4 -8.8772,7.0084 -8.8772,7.0084 0,0 0.6627,14.3887 0.6627,23.6801" /><path
         inkscape:connector-curvature="0"
         id="path3523"
         style="fill:#e0e0e0;fill-opacity:1;fill-rule:evenodd;stroke:none"
         d="m 1304.4342,50.8402 c -15.4905,0 -27.4071,10.1787 -27.4071,27.2903 0,17.1204 11.2709,28.0576 28.3794,28.0576 16.1509,8e-4 26.9765,-11.1546 26.9765,-27.1837 0,-19.2866 -13.7639,-28.1642 -27.8334,-28.1642 l -0.1154,0 z m 0.3266,11.8035 c 6.4953,0 10.5091,6.3867 10.5091,15.9211 6e-4,7.7975 -3.0393,15.8204 -10.5091,15.8204 -7.7948,0 -10.8332,-8.0229 -10.8332,-15.9333 0,-8.9781 3.7888,-15.8088 10.7203,-15.8088 l 0.1129,6e-4 z" /><path
         inkscape:connector-curvature="0"
         id="path3525"
         style="fill:#e0e0e0;fill-opacity:1;fill-rule:evenodd;stroke:none"
         d="m 1388.2365,70.7726 c 0,-6.9293 0.112,-8.1386 0.3289,-12.585 8e-4,9e-4 -0.4451,-6.2918 -7.2253,-6.2918 -6.7759,9e-4 -7.2244,6.4783 -7.2244,6.4783 l -0.4983,2.8764 -0.3274,0 c -2.0523,-3.2536 -7.0364,-8.669 -16.5682,-8.669 -10.8298,0 -18.6361,6.7173 -18.6361,23.0729 l 9e-4,31.0859 16.465,0 0,-28.4888 c 0,-7.6901 2.486,-12.3451 8.3415,-12.3451 4.5505,8e-4 7.253,3.1405 8.2366,5.7401 0.4312,0.9695 0.6458,2.1595 0.6458,3.5742 l 0,31.5196 16.461,0 0,-35.9677 z" /><path
         inkscape:connector-curvature="0"
         id="path3527"
         style="fill:#e0e0e0;fill-opacity:1;fill-rule:evenodd;stroke:none"
         d="m 1397.9027,34.054 c 0,8.6712 -0.2004,54.9199 -0.2004,54.9199 0,6.929 -0.2143,12.7754 -0.4312,17.7627 l 14.2926,0 0.7577,-7.3602 0.2177,0 c 3.9016,5.5199 9.9706,8.5493 17.655,8.5493 11.5982,9e-4 21.9886,-10.0664 21.9886,-26.9719 9e-4,-19.2733 -12.2315,-28.3759 -24.0409,-28.3759 -6.3898,0 -11.3714,2.5897 -13.7599,6.0633 l -0.2112,8e-4 0.7056,-51.4477 c 0,0 0.1349,-7.1943 -8.1559,-7.1943 -8.676,0 -9.3824,7.1943 -9.3824,7.1943 0,0 0.5638,18.1934 0.5647,26.8597 z m 16.268,42.4599 c 0,-1.2969 0.1106,-2.3854 0.324,-3.4736 1.0834,-4.4365 4.8688,-7.7856 9.6384,-7.7856 7.1492,0 11.3723,5.9561 11.3723,14.9349 0,8.4543 -3.7916,14.845 -11.1577,14.845 -4.6628,9e-4 -8.7704,-3.4614 -9.853,-8.3333 -0.2134,-0.8739 -0.324,-1.9508 -0.324,-2.9367 l 0,-7.2507 z" /></g></g></svg>